<svg width="48" height="44" viewBox="0 0 48 44" fill="none" xmlns="http://www.w3.org/2000/svg">
<path d="M48 9.42859V11C48 11.2084 47.9157 11.4083 47.7657 11.5556C47.6157 11.703 47.4122 11.7857 47.2 11.7857H44.8V12.9643C44.8 13.6152 44.2627 14.1429 43.6 14.1429H4.4C3.7373 14.1429 3.2 13.6152 3.2 12.9643V11.7857H0.8C0.587827 11.7857 0.384344 11.703 0.234315 11.5556C0.0842854 11.4083 0 11.2084 0 11V9.42859C1.14414e-06 9.27315 0.0469478 9.1212 0.1349 8.99197C0.222852 8.86273 0.347858 8.76203 0.4941 8.70259L23.6941 0.0597409C23.89 -0.0199136 24.11 -0.0199136 24.3059 0.0597409L47.5059 8.70259C47.6521 8.76203 47.7771 8.86273 47.8651 8.99197C47.9531 9.1212 48 9.27315 48 9.42859ZM45.6 39.2857H2.4C1.0745 39.2857 0 40.341 0 41.6429V43.2143C0 43.4227 0.0842854 43.6225 0.234315 43.7699C0.384344 43.9172 0.587827 44 0.8 44H47.2C47.4122 44 47.6157 43.9172 47.7657 43.7699C47.9157 43.6225 48 43.4227 48 43.2143V41.6429C48 40.341 46.9255 39.2857 45.6 39.2857ZM8 15.7143V34.5714H4.4C3.7373 34.5714 3.2 35.0991 3.2 35.75V37.7143H44.8V35.75C44.8 35.0991 44.2627 34.5714 43.6 34.5714H40V15.7143H33.6V34.5714H27.2V15.7143H20.8V34.5714H14.4V15.7143H8Z" fill="#0C7FF1"/>
</svg>