<svg xmlns="http://www.w3.org/2000/svg" data-name="Layer 1" width="100" height="100.4237289428711" style=""><rect id="backgroundrect" width="100%" height="100%" x="0" y="0" fill="none" stroke="none" class="" style=""/><title>Essential Icons</title><g class="currentLayer" style=""><title>Layer 1</title><path d="M50,58a3,3,0,0,1-3-3V31a3,3,0,0,1,6,0V55A3,3,0,0,1,50,58Z" id="svg_1" class="" fill="#09b708" fill-opacity="1"/><path d="M50,72a3,3,0,0,1-3-3V66a3,3,0,0,1,6,0v3A3,3,0,0,1,50,72Z" id="svg_2" class="" fill="#09b708" fill-opacity="1"/><path d="M50,91A41,41,0,1,1,91,50,41,41,0,0,1,50,91Zm0-76A35,35,0,1,0,85,50,35,35,0,0,0,50,15Z" id="svg_3" class="" fill="#09b708" fill-opacity="1"/></g></svg>