<?xml version="1.0" encoding="UTF-8"?>
<svg width="20px" height="20px" viewBox="0 0 20 20" version="1.1" xmlns="http://www.w3.org/2000/svg" xmlns:xlink="http://www.w3.org/1999/xlink">
    <!-- Generator: Sketch 54.1 (76490) - https://sketchapp.com -->
    <title>noun_tick_634555</title>
    <desc>Created with Sketch.</desc>
    <g id="Affordability-Admin" stroke="none" stroke-width="1" fill="none" fill-rule="evenodd">
        <g id="Assess---Statements-12" transform="translate(-753.000000, -562.000000)" fill="#25AF53" fill-rule="nonzero">
            <g id="noun_tick_634555" transform="translate(753.000000, 562.000000)">
                <g id="Group">
                    <path d="M9.89010989,0.0879120879 C4.41758242,0.0879120879 0,4.52747253 0,9.97802198 C0,15.4285714 4.41758242,19.8901099 9.89010989,19.8901099 C15.3626374,19.8901099 19.8021978,15.4505495 19.8021978,9.97802198 C19.8021978,4.50549451 15.3626374,0.0879120879 9.89010989,0.0879120879 Z M9.89010989,18.043956 C5.45054945,18.043956 1.82417582,14.4395604 1.82417582,9.97802198 C1.82417582,5.53846154 5.42857143,1.91208791 9.89010989,1.91208791 C14.3516484,1.91208791 17.956044,5.51648352 17.956044,9.97802198 C17.956044,14.4175824 14.3296703,18.043956 9.89010989,18.043956 Z" id="Shape"></path>
                    <polygon id="Path" points="8.32967033 11.6703297 5.51648352 8.85714286 4.1978022 10.1758242 8.32967033 14.2857143 14.967033 7.64835165 13.6483516 6.32967033"></polygon>
                </g>
            </g>
        </g>
    </g>
</svg>