<svg width="48" height="45" viewBox="0 0 48 45" fill="none" xmlns="http://www.w3.org/2000/svg">
<path d="M23.9688 44.0263C24.4995 44.0263 25.0085 43.8154 25.3838 43.4401C25.7591 43.0648 25.97 42.5558 25.97 42.0251V20.8425L28.5565 23.429C28.932 23.8045 29.4413 24.0155 29.9723 24.0155C30.5034 24.0155 31.0127 23.8045 31.3882 23.429C31.7637 23.0535 31.9746 22.5442 31.9746 22.0132C31.9746 21.4821 31.7637 20.9728 31.3882 20.5973L25.3846 14.5938C25.1988 14.4077 24.978 14.2601 24.7351 14.1594C24.4922 14.0587 24.2318 14.0068 23.9688 14.0068C23.7058 14.0068 23.4454 14.0587 23.2024 14.1594C22.9595 14.2601 22.7388 14.4077 22.5529 14.5938L16.5494 20.5973C16.1738 20.9728 15.9629 21.4821 15.9629 22.0132C15.9629 22.5442 16.1738 23.0535 16.5494 23.429C16.9249 23.8045 17.4342 24.0155 17.9652 24.0155C18.4962 24.0155 19.0055 23.8045 19.381 23.429L21.9676 20.8425V42.0251C21.9676 42.5558 22.1784 43.0648 22.5537 43.4401C22.929 43.8154 23.438 44.0263 23.9688 44.0263Z" fill="#0C7FF1"/>
<path d="M37.947 10.166C37.7351 7.40016 36.4867 4.81626 34.4515 2.93133C32.4163 1.0464 29.7444 -0.000534319 26.9704 2.0458e-07C23.5284 2.0458e-07 20.8768 1.31078 18.9006 4.00238H16.9645C14.0703 4.00213 11.2925 5.14181 9.23253 7.17466C7.17252 9.20751 5.99609 11.9699 5.95794 14.8638C3.86318 15.7905 2.14979 17.4079 1.10392 19.4457C0.0580569 21.4836 -0.256952 23.8186 0.211507 26.0608C0.679965 28.3029 1.90353 30.3165 3.67784 31.7651C5.45214 33.2138 7.66976 34.0098 9.96032 34.0202H15.9639C16.4946 34.0202 17.0036 33.8094 17.3789 33.4341C17.7542 33.0588 17.9651 32.5498 17.9651 32.0191C17.9651 31.4883 17.7542 30.9793 17.3789 30.604C17.0036 30.2287 16.4946 30.0179 15.9639 30.0179H9.96032C8.50662 29.996 7.11025 29.4473 6.03048 28.4738C4.95071 27.5002 4.26091 26.1679 4.08916 24.7242C3.91741 23.2805 4.27538 21.8236 5.0966 20.6238C5.91782 19.4241 7.14649 18.5632 8.55448 18.2008C9.05026 18.0426 9.47353 17.713 9.74853 17.2712C10.0235 16.8294 10.1323 16.3041 10.0554 15.7894C10.0056 15.5318 9.97384 15.271 9.96032 15.0089C9.96032 13.1513 10.6983 11.3698 12.0118 10.0562C13.3253 8.7427 15.1069 8.00476 16.9645 8.00476H19.9663C20.3099 8.00505 20.6479 7.91682 20.9476 7.74858C21.2473 7.58034 21.4986 7.33775 21.6773 7.04419C22.9681 4.91292 24.559 4.00238 26.9704 4.00238C28.8281 4.00238 30.6096 4.74032 31.9231 6.05386C33.2367 7.36739 33.9746 9.14893 33.9746 11.0065V12.0071C33.9746 12.5379 34.1854 13.0469 34.5607 13.4222C34.936 13.7975 35.4451 14.0083 35.9758 14.0083C38.0988 14.0083 40.1348 14.8517 41.636 16.3529C43.1372 17.8541 43.9806 19.8901 43.9806 22.0131C43.9806 24.1361 43.1372 26.1721 41.636 27.6733C40.1348 29.1745 38.0988 30.0179 35.9758 30.0179H31.9734C31.4427 30.0179 30.9337 30.2287 30.5584 30.604C30.1831 30.9793 29.9722 31.4883 29.9722 32.0191C29.9722 32.5498 30.1831 33.0588 30.5584 33.4341C30.9337 33.8094 31.4427 34.0202 31.9734 34.0202H35.9758C38.9921 34.0245 41.8994 32.8934 44.1198 30.8519C46.3401 28.8104 47.7108 26.008 47.9592 23.0019C48.2076 19.9959 47.3155 17.0065 45.4604 14.6282C43.6053 12.2499 40.923 10.6569 37.947 10.166Z" fill="#0C7FF1"/>
</svg>