<svg xmlns="http://www.w3.org/2000/svg" data-name="Layer 1" viewBox="0 0 100 100" x="0px" y="0px">
<title>Artboard 15</title>
<path fill="#4A90E2" stroke="#4A90E2" d="M50,94a4,4,0,0,0,4-4V47.66l5.17,5.17a4,4,0,0,0,5.66-5.66l-12-12a4,4,0,0,0-5.66,0l-12,12a4,4,0,0,0,5.66,5.66L46,47.66V90A4,4,0,0,0,50,94Z"/>
<path fill="#4A90E2" stroke="#4A90E2" d="M77.94,26.32A22,22,0,0,0,56,6c-6.88,0-12.18,2.62-16.13,8H36A22,22,0,0,0,14,35.71,20,20,0,0,0,22,74H34a4,4,0,0,0,0-8H22a12,12,0,0,1-2.81-23.62,4.38,4.38,0,0,0,3-4.82A11.29,11.29,0,0,1,22,36,14,14,0,0,1,36,22h6a4,4,0,0,0,3.42-1.92C48,15.82,51.18,14,56,14A14,14,0,0,1,70,28v2a4,4,0,0,0,4,4,16,16,0,0,1,0,32H66a4,4,0,0,0,0,8h8a24,24,0,0,0,3.94-47.68Z"/>
</svg>