<?xml version="1.0" encoding="UTF-8"?>
<svg width="20px" height="20px" viewBox="0 0 20 20" version="1.1" xmlns="http://www.w3.org/2000/svg" xmlns:xlink="http://www.w3.org/1999/xlink">
    <!-- Generator: Sketch 54.1 (76490) - https://sketchapp.com -->
    <title>noun_Warning_1955689</title>
    <desc>Created with Sketch.</desc>
    <g id="Affordability-Admin" stroke="none" stroke-width="1" fill="none" fill-rule="evenodd">
        <g id="Assess---Statements-12" transform="translate(-753.000000, -612.000000)" fill="#FF6F00" fill-rule="nonzero">
            <g id="noun_Warning_1955689" transform="translate(753.000000, 612.000000)">
                <path d="M10.0061695,18.5530164 C5.28608304,18.5530164 1.44581114,14.7127445 1.44581114,9.99265796 C1.44581114,5.27257145 5.28608304,1.43229955 10.0061695,1.43229955 C14.7262561,1.43229955 18.566528,5.27257145 18.566528,9.99265796 C18.566528,14.7127445 14.7262561,18.5530164 10.0061695,18.5530164 M10.0061695,0.00557314443 C4.49044528,0.00557314443 0.019084734,4.47693369 0.019084734,9.99265796 C0.019084734,15.5083822 4.49044528,19.9797428 10.0061695,19.9797428 C15.5218938,19.9797428 19.9932544,15.5083822 19.9932544,9.99265796 C19.9932544,4.47693369 15.5218938,0.00557314443 10.0061695,0.00557314443 M10.0061695,5.47469102 C9.61218993,5.47469102 9.29280635,5.79407461 9.29280635,6.18805423 L9.29280635,11.8535848 C9.29280635,12.2475644 9.61218993,12.566948 10.0061695,12.566948 C10.4001492,12.566948 10.7195328,12.2475644 10.7195328,11.8535848 L10.7195328,6.18805423 C10.7195328,5.79407461 10.4001492,5.47469102 10.0061695,5.47469102 M10.0061695,13.5076362 C9.61239307,13.5076362 9.29280635,13.7853723 9.29280635,14.1282622 C9.29280635,14.4706766 9.61239307,14.7484126 10.0061695,14.7484126 C10.399946,14.7484127 10.7195328,14.4706766 10.7195328,14.1282622 C10.7195328,13.7858479 10.399946,13.5076362 10.0061695,13.5076362" id="Shape"></path>
            </g>
        </g>
    </g>
</svg>